<svg width="24" height="24" viewBox="0 0 24 24" fill="none" xmlns="http://www.w3.org/2000/svg">
<path d="M4.92795 1C4.30283 1 3.70332 1.24833 3.2613 1.69035C2.81927 2.13237 2.57095 2.73188 2.57095 3.357C2.57095 3.98212 2.81927 4.58163 3.2613 5.02365C3.70332 5.46567 4.30283 5.714 4.92795 5.714H14.9519L1.68995 18.976C1.24844 19.4184 1.00049 20.018 1.00049 20.643C1.00049 21.268 1.24844 21.8676 1.68995 22.31C1.90877 22.5293 2.16879 22.7031 2.45505 22.8215C2.74131 22.94 3.04816 23.0006 3.35795 23C3.96095 23 4.56395 22.771 5.02495 22.31L18.2849 9.047V19.071C18.2785 19.3847 18.3347 19.6965 18.4503 19.9882C18.5658 20.2799 18.7385 20.5455 18.958 20.7697C19.1776 20.9938 19.4396 21.1718 19.7289 21.2934C20.0181 21.4149 20.3287 21.4776 20.6424 21.4776C20.9562 21.4776 21.2668 21.4149 21.556 21.2934C21.8453 21.1718 22.1073 20.9938 22.3269 20.7697C22.5464 20.5455 22.7191 20.2799 22.8346 19.9882C22.9502 19.6965 23.0064 19.3847 22.9999 19.071V1H4.92795Z" fill="#111111"/>
</svg>
