<svg width="24" height="24" viewBox="0 0 24 24" fill="none" xmlns="http://www.w3.org/2000/svg">
<path d="M21 14C22.1 14 23 14.9 23 16V22C23 23.1 22.1 24 21 24H3C1.9 24 1 23.1 1 22V16C1 14.9 1.9 14 3 14C4.1 14 5 14.9 5 16V20H19V16C19 14.9 19.9 14 21 14ZM8.82 8.84C8.04 9.62 6.77 9.63 5.99 8.84C5.21 8.06 5.2 6.8 5.98 6.02L11.99 0L18.01 6.01C18.79 6.79 18.8 8.06 18.02 8.84C17.24 9.62 15.97 9.63 15.19 8.84L13.99 7.65V13.83C13.99 14.3604 13.7793 14.8691 13.4042 15.2442C13.0291 15.6193 12.5204 15.83 11.99 15.83C11.4596 15.83 10.9509 15.6193 10.5758 15.2442C10.2007 14.8691 9.99 14.3604 9.99 13.83V7.66L8.82 8.84Z" fill="#111111"/>
</svg>
